<?xml version="1.0" encoding="utf-8"?>
<!-- Generator: Adobe Illustrator 16.0.0, SVG Export Plug-In . SVG Version: 6.00 Build 0)  -->
<!DOCTYPE svg PUBLIC "-//W3C//DTD SVG 1.1//EN" "http://www.w3.org/Graphics/SVG/1.1/DTD/svg11.dtd">
<svg version="1.1" id="Layer_1" xmlns="http://www.w3.org/2000/svg" xmlns:xlink="http://www.w3.org/1999/xlink" x="0px" y="0px"
	 width="632.695px" height="145.755px" viewBox="0 0 632.695 145.755" enable-background="new 0 0 632.695 145.755"
	 xml:space="preserve">
<g>
	<g>
		<path fill="#FFFFFF" d="M117.335,37.377c4.758,0,8.384,0.982,10.763,3.248c1.888,1.775,3.286,4.494,3.286,8.082
			c0,4.569-1.812,7.893-4.683,10.083c-2.794,2.153-6.684,3.135-11.367,3.135h-9.441v-1.208c3.097-0.265,3.437-0.491,3.437-3.701
			V42.324c0-3.248-0.34-3.475-3.097-3.701v-1.246H117.335z M113.747,56.75c0,2.757,0.831,3.625,3.475,3.625
			c5.778,0,9.215-4.531,9.215-10.989c0-3.739-1.246-6.76-3.437-8.497c-1.624-1.397-3.664-2.077-6.231-2.077
			c-1.473,0-2.304,0.264-2.606,0.528c-0.302,0.302-0.416,0.869-0.416,2.115V56.75z"/>
		<path fill="#FFFFFF" d="M150.459,57.052c-0.189,1.322-0.793,4.117-1.02,4.872h-15.522v-1.208c2.568-0.189,2.795-0.378,2.795-3.06
			v-9.328c0-2.681-0.227-2.833-2.568-2.983v-1.208h14.578c0.038,0.755,0.151,2.644,0.302,4.457l-1.208,0.075
			c-0.378-1.133-0.642-1.699-1.058-2.228c-0.491-0.604-1.208-0.869-3.097-0.869h-1.624c-1.057,0-1.095,0.076-1.095,1.095v5.212
			h2.379c2.153,0,2.417-0.227,2.719-2.04h1.246v5.778h-1.246c-0.302-1.775-0.566-2.115-2.719-2.115h-2.379v4.041
			c0,1.586,0.189,2.304,0.642,2.568c0.491,0.34,1.322,0.415,2.833,0.415c1.662,0,2.606-0.227,3.286-0.981
			c0.529-0.529,1.02-1.397,1.548-2.606L150.459,57.052z"/>
		<path fill="#FFFFFF" d="M162.132,44.136c4.381,0,7.1,1.662,7.1,5.287c0,3.512-2.644,5.325-6.231,5.816
			c-0.491,0.075-1.02,0.075-1.548,0l-2.153-0.528v3.134c0,2.493,0.265,2.645,2.908,2.871v1.208h-9.593v-1.208
			c2.304-0.228,2.568-0.378,2.568-2.833v-9.479c0-2.719-0.265-2.87-2.417-3.059v-1.208L162.132,44.136L162.132,44.136z
			 M159.299,53.351c0.491,0.189,1.208,0.34,1.888,0.34c1.058,0,3.512-0.529,3.512-4.23c0-2.757-1.812-4.003-3.776-4.003
			c-1.511,0-1.624,0.302-1.624,1.624V53.351z"/>
		<path fill="#FFFFFF" d="M179.922,61.924v-1.208l0.68-0.076c1.02-0.188,1.284-0.491,0.793-1.812l-0.906-2.342h-6.08
			c-0.265,0.643-0.529,1.436-0.831,2.38c-0.377,1.283,0.038,1.548,1.058,1.736l0.906,0.114v1.208h-7.1v-1.208
			c1.737-0.228,2.493-0.491,3.512-2.946l5.892-13.784l1.812-0.34l6.118,14.652c0.755,1.927,1.511,2.267,3.248,2.418v1.208H179.922z
			 M177.505,48.442h-0.113l-2.379,6.345h4.834L177.505,48.442z"/>
		<path fill="#FFFFFF" d="M210.062,62.151h-1.208c-3.852,0-5.023-0.906-6.08-2.455c-0.907-1.246-1.775-2.794-2.493-4.116
			c-0.529-0.944-0.869-1.246-2.04-1.246h-0.566v3.437c0,2.53,0.227,2.757,2.606,2.946v1.208h-9.366v-1.208
			c2.379-0.151,2.644-0.341,2.644-2.908v-9.593c0-2.568-0.227-2.719-2.53-2.908v-1.171h9.555c2.152,0,3.587,0.228,4.758,0.906
			c1.246,0.718,2.04,2.002,2.04,3.664c0,2.379-1.737,3.852-3.777,4.569c0.491,0.906,1.737,2.833,2.644,4.116
			c0.944,1.36,1.473,2.077,2.115,2.72c0.604,0.566,1.246,0.868,1.85,1.058L210.062,62.151z M198.771,53.011
			c1.095,0,2.001-0.113,2.757-0.642c0.907-0.604,1.36-1.737,1.36-3.059c0-2.757-1.775-3.852-3.701-3.852
			c-1.208,0-1.511,0.34-1.511,1.359v6.194H198.771z"/>
		<path fill="#FFFFFF" d="M226.532,49.197c-0.416-1.662-0.718-2.417-1.171-2.908c-0.491-0.566-1.322-0.718-2.719-0.718h-1.51v12.085
			c0,2.719,0.264,2.87,2.946,3.06v1.208h-9.97v-1.208c2.568-0.189,2.794-0.341,2.794-3.06V45.572h-1.02
			c-2.001,0-2.644,0.265-3.135,0.869c-0.453,0.529-0.793,1.359-1.133,2.719h-1.208c0.113-2.304,0.302-4.305,0.34-5.703h0.869
			c0.453,0.604,0.755,0.68,1.662,0.68h11.745c0.906,0,1.058-0.151,1.511-0.68h0.869c0.038,1.322,0.188,4.079,0.377,5.665
			L226.532,49.197z"/>
		<path fill="#FFFFFF" d="M254.028,45.345c-2.719,0.189-2.87,0.416-2.833,2.946l0.227,9.592c0.038,2.492,0.151,2.682,2.682,2.833
			v1.208H244.7v-1.208c2.455-0.151,2.606-0.341,2.644-2.871l0.113-10.838h-0.113L241,61.622h-1.095l-5.552-14.351h-0.113
			l-0.34,6.874c-0.151,2.87-0.189,3.89-0.113,4.796c0.076,1.284,0.68,1.661,2.606,1.775v1.208h-7.1v-1.208
			c1.624-0.076,2.228-0.529,2.455-1.813c0.189-0.944,0.34-2.266,0.529-4.607l0.453-5.476c0.265-3.059-0.038-3.286-2.455-3.475
			v-1.208h6.722l4.91,11.178l5.287-11.178h6.835L254.028,45.345L254.028,45.345z"/>
		<path fill="#FFFFFF" d="M272.764,57.052c-0.188,1.322-0.793,4.117-1.02,4.872h-15.521v-1.208c2.568-0.189,2.795-0.378,2.795-3.06
			v-9.328c0-2.681-0.227-2.833-2.568-2.983v-1.208h14.578c0.037,0.755,0.15,2.644,0.302,4.457l-1.209,0.075
			c-0.377-1.133-0.642-1.699-1.057-2.228c-0.491-0.604-1.209-0.869-3.097-0.869h-1.624c-1.057,0-1.095,0.076-1.095,1.095v5.212
			h2.379c2.153,0,2.417-0.227,2.719-2.04h1.246v5.778h-1.246c-0.303-1.775-0.566-2.115-2.719-2.115h-2.379v4.041
			c0,1.586,0.189,2.304,0.642,2.568c0.491,0.34,1.322,0.415,2.833,0.415c1.662,0,2.605-0.227,3.285-0.981
			c0.529-0.529,1.021-1.397,1.549-2.606L272.764,57.052z"/>
		<path fill="#FFFFFF" d="M295.087,45.307c-1.624,0.113-2.455,0.453-2.568,1.586c-0.113,1.095-0.227,2.304-0.227,4.872v10.347
			h-1.888L279.036,48.63l-0.037,0.038v5.59c0,2.644,0.113,3.89,0.227,4.796c0.151,1.208,0.944,1.548,2.983,1.699v1.171h-7.553
			v-1.171c1.623-0.151,2.379-0.491,2.53-1.699c0.113-0.944,0.264-2.152,0.264-4.796v-5.099c0-3.097-0.68-3.664-3.21-3.852v-1.171
			h6.193L290.63,55.73h0.075v-3.965c0-2.568-0.113-3.777-0.227-4.759c-0.151-1.246-0.831-1.586-2.983-1.699v-1.171h7.591
			L295.087,45.307L295.087,45.307z"/>
		<path fill="#FFFFFF" d="M312.688,49.197c-0.415-1.662-0.717-2.417-1.17-2.908c-0.491-0.566-1.322-0.718-2.72-0.718h-1.511v12.085
			c0,2.719,0.265,2.87,2.946,3.06v1.208h-9.971v-1.208c2.568-0.189,2.795-0.341,2.795-3.06V45.572h-1.02
			c-2.002,0-2.644,0.265-3.135,0.869c-0.453,0.529-0.793,1.359-1.133,2.719h-1.208c0.113-2.304,0.302-4.305,0.34-5.703h0.868
			c0.453,0.604,0.755,0.68,1.662,0.68h11.745c0.906,0,1.057-0.151,1.51-0.68h0.869c0.038,1.322,0.188,4.079,0.378,5.665
			L312.688,49.197z"/>
		<path fill="#FFFFFF" d="M343.585,52.785c0,6.344-4.758,9.63-9.817,9.63c-6.459,0-9.896-4.57-9.896-9.026
			c0-6.646,5.323-9.743,9.896-9.743C339.771,43.646,343.585,47.686,343.585,52.785z M328.63,52.596c0,5.022,2.304,8.46,5.478,8.46
			c2.529,0,4.721-2.002,4.721-7.478c0-4.344-1.889-8.573-5.363-8.573C330.973,45.005,328.63,47.649,328.63,52.596z"/>
		<path fill="#FFFFFF" d="M359.753,48.857c-0.34-1.095-0.604-1.775-1.021-2.341c-0.453-0.604-1.17-0.982-3.06-0.982h-1.851
			c-0.981,0-1.021,0.076-1.021,1.095v5.778h2.606c2.492,0,2.719-0.188,3.134-2.115h1.209v5.967h-1.209
			c-0.34-2.152-0.604-2.266-3.172-2.266h-2.568v3.852c0,2.493,0.265,2.72,2.946,2.871v1.208h-9.706v-1.208
			c2.304-0.151,2.53-0.378,2.53-2.871v-9.592c0-2.568-0.227-2.757-2.53-2.908v-1.208h14.615c0.038,0.755,0.112,2.644,0.302,4.57
			L359.753,48.857z"/>
		<path fill="#FFFFFF" d="M394.048,62.264c-0.303,0-0.756-0.038-1.171-0.038c-4.079-0.188-5.59-1.17-7.176-3.587
			c-1.096-1.662-2.266-3.814-3.361-5.741c-0.604-1.133-1.283-1.586-2.757-1.586h-0.868v5.703c0,3.097,0.34,3.437,3.248,3.701v1.208
			h-10.877v-1.208c2.908-0.265,3.323-0.567,3.323-3.701V42.248c0-3.097-0.341-3.399-3.173-3.625v-1.246h10.16
			c3.097,0,4.983,0.377,6.494,1.359c1.512,1.02,2.53,2.681,2.53,5.023c0,3.286-2.151,5.136-4.758,6.231
			c0.604,1.171,2.039,3.702,3.172,5.401c1.358,2.077,2.151,3.21,2.983,4.041c0.867,0.981,1.586,1.435,2.455,1.699L394.048,62.264z
			 M379.961,49.915c1.737,0,2.982-0.302,3.854-1.02c1.32-1.095,1.888-2.605,1.888-4.569c0-4.041-2.417-5.552-4.834-5.552
			c-0.981,0-1.548,0.189-1.812,0.378c-0.266,0.227-0.341,0.642-0.341,1.51v9.253H379.961z"/>
		<path fill="#FFFFFF" d="M411.952,57.052c-0.188,1.322-0.793,4.117-1.021,4.872h-15.521v-1.208c2.567-0.189,2.795-0.378,2.795-3.06
			v-9.328c0-2.681-0.227-2.833-2.567-2.983v-1.208h14.577c0.037,0.755,0.15,2.644,0.302,4.457l-1.209,0.075
			c-0.377-1.133-0.642-1.699-1.057-2.228c-0.491-0.604-1.209-0.869-3.097-0.869h-1.624c-1.059,0-1.097,0.076-1.097,1.095v5.212h2.38
			c2.152,0,2.417-0.227,2.72-2.04h1.246v5.778h-1.246c-0.303-1.775-0.566-2.115-2.72-2.115h-2.38v4.041
			c0,1.586,0.189,2.304,0.644,2.568c0.49,0.34,1.321,0.415,2.832,0.415c1.662,0,2.604-0.227,3.285-0.981
			c0.528-0.529,1.021-1.397,1.549-2.606L411.952,57.052z"/>
		<path fill="#FFFFFF" d="M426.155,61.924v-1.208c2.189-0.189,2.454-0.416,2.454-3.06v-4.305h-7.704v4.305
			c0,2.644,0.227,2.908,2.266,3.06v1.208h-9.139v-1.208c2.417-0.151,2.644-0.378,2.644-3.06v-9.252c0-2.681-0.227-2.87-2.719-3.097
			v-1.171h9.29v1.171c-2.115,0.227-2.342,0.377-2.342,3.097v3.248h7.704v-3.248c0-2.681-0.303-2.87-2.417-3.097v-1.171h9.215v1.095
			c-2.341,0.302-2.568,0.491-2.568,3.172v9.252c0,2.682,0.229,2.87,2.568,3.06v1.208L426.155,61.924L426.155,61.924z"/>
		<path fill="#FFFFFF" d="M448.138,61.924v-1.208l0.681-0.076c1.021-0.188,1.283-0.491,0.794-1.812l-0.907-2.342h-6.08
			c-0.264,0.643-0.528,1.436-0.831,2.38c-0.377,1.283,0.038,1.548,1.058,1.736l0.906,0.114v1.208h-7.1v-1.208
			c1.736-0.228,2.492-0.491,3.513-2.946l5.892-13.784l1.812-0.34l6.118,14.652c0.755,1.927,1.51,2.267,3.247,2.418v1.208H448.138z
			 M445.721,48.442h-0.112l-2.38,6.345h4.835L445.721,48.442z"/>
		<path fill="#FFFFFF" d="M471.481,52.143c2.982,0.34,5.098,1.699,5.098,4.419c0,4.229-4.834,5.362-9.365,5.362h-8.082v-1.208
			c2.417-0.151,2.645-0.341,2.645-2.946v-9.403c0-2.719-0.228-2.871-2.492-3.059v-1.171h9.817c4.004,0,6.384,1.208,6.384,4.079
			c0,2.455-2.305,3.475-4.003,3.852L471.481,52.143L471.481,52.143z M467.364,51.727c2.189,0,3.701-0.793,3.701-3.059
			c0-2.455-1.774-3.21-3.438-3.21c-1.511,0-1.699,0.453-1.699,1.624v4.645H467.364z M465.93,57.845c0,2.342,0.906,2.757,2.19,2.757
			c1.964,0,3.813-1.246,3.813-3.89s-1.889-3.625-4.606-3.625h-1.397V57.845z"/>
		<path fill="#FFFFFF" d="M479.415,61.924v-1.208c2.341-0.151,2.604-0.341,2.604-2.908v-9.517c0-2.606-0.265-2.757-2.604-2.946
			v-1.208h9.441v1.208c-2.381,0.151-2.606,0.302-2.606,2.946v9.479c0,2.605,0.227,2.795,2.606,2.946v1.208H479.415z"/>
		<path fill="#FFFFFF" d="M507.325,56.675c-0.228,1.321-0.793,4.268-1.021,5.249H491.16v-1.208c2.568-0.189,2.795-0.378,2.795-2.984
			v-9.479c0-2.606-0.265-2.757-2.605-2.946v-1.171h9.631v1.171c-2.568,0.188-2.796,0.34-2.796,2.983v9.63
			c0,1.284,0.189,1.964,0.644,2.266c0.528,0.302,1.435,0.378,2.681,0.378c1.437-0.038,2.455-0.265,3.098-1.058
			c0.565-0.642,0.943-1.511,1.474-3.021L507.325,56.675z"/>
		<path fill="#FFFFFF" d="M508.952,61.924v-1.208c2.341-0.151,2.604-0.341,2.604-2.908v-9.517c0-2.606-0.265-2.757-2.604-2.946
			v-1.208h9.44v1.208c-2.38,0.151-2.605,0.302-2.605,2.946v9.479c0,2.605,0.227,2.795,2.605,2.946v1.208H508.952z"/>
		<path fill="#FFFFFF" d="M536.899,49.197c-0.415-1.662-0.718-2.417-1.171-2.908c-0.49-0.566-1.321-0.718-2.72-0.718h-1.511v12.085
			c0,2.719,0.265,2.87,2.946,3.06v1.208h-9.972v-1.208c2.568-0.189,2.795-0.341,2.795-3.06V45.572h-1.02
			c-2.002,0-2.645,0.265-3.135,0.869c-0.453,0.529-0.793,1.359-1.133,2.719h-1.209c0.113-2.304,0.303-4.305,0.341-5.703h0.868
			c0.452,0.604,0.755,0.68,1.661,0.68h11.745c0.906,0,1.058-0.151,1.51-0.68h0.869c0.038,1.322,0.188,4.079,0.378,5.665
			L536.899,49.197z"/>
		<path fill="#FFFFFF" d="M548.987,61.924v-1.208l0.68-0.076c1.021-0.188,1.284-0.491,0.794-1.812l-0.907-2.342h-6.08
			c-0.264,0.643-0.527,1.436-0.831,2.38c-0.377,1.283,0.038,1.548,1.059,1.736l0.906,0.114v1.208h-7.101v-1.208
			c1.737-0.228,2.492-0.491,3.513-2.946l5.892-13.784l1.812-0.34l6.118,14.652c0.755,1.927,1.51,2.267,3.247,2.418v1.208H548.987z
			 M546.57,48.442h-0.113l-2.379,6.345h4.834L546.57,48.442z"/>
		<path fill="#FFFFFF" d="M573.84,49.197c-0.415-1.662-0.717-2.417-1.17-2.908c-0.491-0.566-1.322-0.718-2.72-0.718h-1.511v12.085
			c0,2.719,0.265,2.87,2.945,3.06v1.208h-9.971v-1.208c2.568-0.189,2.795-0.341,2.795-3.06V45.572h-1.02
			c-2.002,0-2.645,0.265-3.136,0.869c-0.453,0.529-0.793,1.359-1.133,2.719h-1.208c0.113-2.304,0.302-4.305,0.34-5.703h0.868
			c0.453,0.604,0.755,0.68,1.662,0.68h11.745c0.906,0,1.057-0.151,1.51-0.68h0.869c0.038,1.322,0.188,4.079,0.378,5.665
			L573.84,49.197z"/>
		<path fill="#FFFFFF" d="M577.28,61.924v-1.208c2.341-0.151,2.604-0.341,2.604-2.908v-9.517c0-2.606-0.265-2.757-2.604-2.946
			v-1.208h9.44v1.208c-2.38,0.151-2.605,0.302-2.605,2.946v9.479c0,2.605,0.227,2.795,2.605,2.946v1.208H577.28z"/>
		<path fill="#FFFFFF" d="M608.929,52.785c0,6.344-4.758,9.63-9.817,9.63c-6.458,0-9.896-4.57-9.896-9.026
			c0-6.646,5.324-9.743,9.896-9.743C605.114,43.646,608.929,47.686,608.929,52.785z M593.974,52.596c0,5.022,2.305,8.46,5.478,8.46
			c2.53,0,4.721-2.002,4.721-7.478c0-4.344-1.889-8.573-5.363-8.573C596.315,45.005,593.974,47.649,593.974,52.596z"/>
		<path fill="#FFFFFF" d="M631.517,45.307c-1.624,0.113-2.454,0.453-2.567,1.586c-0.113,1.095-0.228,2.304-0.228,4.872v10.347
			h-1.888L615.466,48.63l-0.037,0.038v5.59c0,2.644,0.113,3.89,0.228,4.796c0.15,1.208,0.943,1.548,2.982,1.699v1.171h-7.553v-1.171
			c1.623-0.151,2.379-0.491,2.53-1.699c0.113-0.944,0.264-2.152,0.264-4.796v-5.099c0-3.097-0.68-3.664-3.21-3.852v-1.171h6.193
			l10.197,11.594h0.074v-3.965c0-2.568-0.112-3.777-0.227-4.759c-0.151-1.246-0.831-1.586-2.983-1.699v-1.171h7.591L631.517,45.307
			L631.517,45.307z"/>
		<path fill="#FFFFFF" d="M117.071,101.263v-1.209l0.68-0.074c1.02-0.188,1.284-0.492,0.793-1.812l-0.906-2.342h-6.08
			c-0.265,0.643-0.529,1.436-0.831,2.38c-0.377,1.282,0.038,1.548,1.058,1.735l0.906,0.113v1.209h-7.1v-1.209
			c1.737-0.227,2.493-0.49,3.512-2.945l5.892-13.783l1.812-0.34l6.118,14.652c0.755,1.926,1.511,2.266,3.248,2.416v1.209H117.071z
			 M114.654,87.781h-0.113l-2.379,6.345h4.834L114.654,87.781z"/>
		<path fill="#FFFFFF" d="M148.306,84.646c-1.624,0.113-2.455,0.453-2.568,1.588c-0.113,1.095-0.227,2.304-0.227,4.871v10.348
			h-1.889L132.256,87.97l-0.038,0.037v5.59c0,2.645,0.113,3.891,0.227,4.797c0.151,1.207,0.944,1.547,2.983,1.698v1.171h-7.553
			v-1.171c1.624-0.151,2.379-0.491,2.53-1.698c0.113-0.944,0.264-2.152,0.264-4.797v-5.099c0-3.097-0.68-3.663-3.21-3.853v-1.17
			h6.194l10.197,11.594h0.076v-3.965c0-2.567-0.113-3.776-0.227-4.758c-0.151-1.248-0.831-1.588-2.983-1.701v-1.17h7.591
			L148.306,84.646L148.306,84.646z"/>
		<path fill="#FFFFFF" d="M159.375,83.476c3.324,0,6.194,0.643,8.195,2.455c1.397,1.245,2.379,3.36,2.379,5.815
			c0,6.571-5.325,9.517-11.896,9.517h-8.271v-1.209c2.379-0.15,2.719-0.377,2.719-2.906v-9.519c0-2.644-0.265-2.794-2.493-2.983
			v-1.17H159.375z M156.731,96.995c0,2.229,0.491,2.87,2.266,2.87c3.814,0,6.193-2.832,6.193-7.63c0-5.248-2.719-7.438-6.344-7.438
			c-0.982,0-1.586,0.228-1.813,0.453c-0.189,0.188-0.302,0.718-0.302,1.662V96.995z"/>
		<path fill="#FFFFFF" d="M202.999,101.603c-0.302,0-0.755-0.037-1.17-0.037c-4.079-0.188-5.589-1.17-7.176-3.588
			c-1.095-1.662-2.266-3.813-3.361-5.74c-0.604-1.133-1.284-1.586-2.757-1.586h-0.869v5.703c0,3.097,0.34,3.437,3.248,3.699v1.209
			h-10.876v-1.209c2.908-0.264,3.324-0.566,3.324-3.699V81.587c0-3.097-0.34-3.398-3.172-3.626v-1.246h10.159
			c3.097,0,4.985,0.378,6.496,1.359c1.511,1.021,2.53,2.682,2.53,5.022c0,3.285-2.152,5.137-4.758,6.231
			c0.604,1.171,2.04,3.7,3.172,5.399c1.359,2.078,2.153,3.211,2.983,4.041c0.869,0.981,1.586,1.436,2.455,1.699L202.999,101.603z
			 M188.913,89.253c1.737,0,2.983-0.302,3.852-1.02c1.322-1.096,1.888-2.605,1.888-4.569c0-4.041-2.417-5.552-4.834-5.552
			c-0.982,0-1.548,0.188-1.812,0.378c-0.264,0.227-0.34,0.642-0.34,1.511v9.252H188.913z"/>
		<path fill="#FFFFFF" d="M220.904,96.392c-0.189,1.321-0.793,4.116-1.02,4.871h-15.522v-1.209c2.568-0.188,2.795-0.377,2.795-3.059
			v-9.328c0-2.682-0.227-2.832-2.568-2.982v-1.209h14.578c0.038,0.756,0.151,2.645,0.302,4.457l-1.208,0.074
			c-0.378-1.133-0.642-1.699-1.058-2.229c-0.491-0.604-1.208-0.868-3.097-0.868h-1.624c-1.057,0-1.095,0.075-1.095,1.096v5.211
			h2.379c2.153,0,2.417-0.227,2.719-2.039h1.246v5.778h-1.246c-0.302-1.775-0.566-2.115-2.719-2.115h-2.379v4.041
			c0,1.586,0.189,2.305,0.642,2.568c0.491,0.34,1.322,0.415,2.833,0.415c1.662,0,2.606-0.228,3.286-0.981
			c0.529-0.529,1.02-1.396,1.548-2.605L220.904,96.392z"/>
		<path fill="#FFFFFF" d="M242.32,93.71c-1.548,0.227-1.7,0.303-1.7,2.229v2.229c0,0.98,0.076,1.852,0.227,2.455
			c-1.888,0.453-4.381,1.133-6.911,1.133c-6.684,0-10.876-3.663-10.876-9.14c0-6.458,5.325-9.63,11.481-9.63
			c2.493,0,4.683,0.565,5.665,0.867c0.113,0.906,0.227,2.494,0.453,5.023l-1.208,0.113c-0.907-3.551-3.135-4.646-5.514-4.646
			c-3.134,0-6.118,2.455-6.118,7.704c0,4.269,2.266,8.31,6.496,8.31c1.095,0,2.077-0.379,2.077-1.852v-2.529
			c0-1.89-0.151-2.039-3.097-2.267V92.5h9.026L242.32,93.71L242.32,93.71z"/>
		<path fill="#FFFFFF" d="M260.941,96.392c-0.189,1.321-0.793,4.116-1.02,4.871H244.4v-1.209c2.568-0.188,2.795-0.377,2.795-3.059
			v-9.328c0-2.682-0.227-2.832-2.568-2.982v-1.209h14.578c0.038,0.756,0.151,2.645,0.302,4.457l-1.208,0.074
			c-0.378-1.133-0.642-1.699-1.058-2.229c-0.491-0.604-1.208-0.868-3.097-0.868h-1.624c-1.057,0-1.095,0.075-1.095,1.096v5.211
			h2.379c2.153,0,2.417-0.227,2.719-2.039h1.246v5.778h-1.246c-0.302-1.775-0.566-2.115-2.719-2.115h-2.379v4.041
			c0,1.586,0.189,2.305,0.642,2.568c0.491,0.34,1.322,0.415,2.833,0.415c1.662,0,2.606-0.228,3.286-0.981
			c0.529-0.529,1.02-1.396,1.548-2.605L260.941,96.392z"/>
		<path fill="#FFFFFF" d="M283.264,84.646c-1.624,0.113-2.455,0.453-2.568,1.588c-0.113,1.095-0.227,2.304-0.227,4.871v10.348
			h-1.888L267.213,87.97l-0.038,0.037v5.59c0,2.645,0.113,3.891,0.227,4.797c0.151,1.207,0.944,1.547,2.983,1.698v1.171h-7.553
			v-1.171c1.624-0.151,2.379-0.491,2.53-1.698c0.113-0.944,0.264-2.152,0.264-4.797v-5.099c0-3.097-0.68-3.663-3.21-3.853v-1.17
			h6.193l10.197,11.594h0.075v-3.967c0-2.566-0.113-3.775-0.227-4.758c-0.151-1.246-0.831-1.587-2.983-1.699v-1.17h7.591v1.17
			H283.264z"/>
		<path fill="#FFFFFF" d="M301.205,96.392c-0.188,1.321-0.793,4.116-1.02,4.871h-15.521v-1.209c2.568-0.188,2.795-0.377,2.795-3.059
			v-9.328c0-2.682-0.227-2.832-2.568-2.982v-1.209h14.578c0.037,0.756,0.15,2.645,0.302,4.457l-1.209,0.074
			c-0.377-1.133-0.642-1.699-1.057-2.229c-0.491-0.604-1.209-0.868-3.097-0.868h-1.624c-1.058,0-1.096,0.075-1.096,1.096v5.211
			h2.379c2.153,0,2.417-0.227,2.72-2.039h1.246v5.778h-1.246c-0.303-1.775-0.566-2.115-2.72-2.115h-2.379v4.041
			c0,1.586,0.189,2.305,0.643,2.568c0.49,0.34,1.321,0.415,2.832,0.415c1.662,0,2.605-0.228,3.285-0.981
			c0.529-0.529,1.021-1.396,1.549-2.605L301.205,96.392z"/>
		<path fill="#FFFFFF" d="M322.434,101.49h-1.209c-3.853,0-5.021-0.906-6.08-2.455c-0.906-1.246-1.775-2.794-2.492-4.116
			c-0.529-0.943-0.869-1.246-2.04-1.246h-0.566v3.438c0,2.529,0.227,2.757,2.606,2.945v1.209h-9.366v-1.209
			c2.379-0.15,2.644-0.341,2.644-2.908v-9.592c0-2.568-0.227-2.72-2.53-2.908v-1.17h9.555c2.152,0,3.588,0.227,4.759,0.905
			c1.246,0.718,2.039,2.001,2.039,3.663c0,2.379-1.736,3.852-3.776,4.569c0.49,0.905,1.737,2.833,2.644,4.116
			c0.942,1.359,1.473,2.076,2.114,2.72c0.604,0.565,1.246,0.868,1.851,1.058L322.434,101.49z M311.142,92.351
			c1.095,0,2.001-0.113,2.757-0.643c0.906-0.604,1.359-1.736,1.359-3.059c0-2.758-1.775-3.854-3.701-3.854
			c-1.208,0-1.511,0.34-1.511,1.359v6.193h1.096V92.351z"/>
		<path fill="#FFFFFF" d="M334.975,101.263v-1.209l0.68-0.074c1.021-0.188,1.283-0.492,0.794-1.812l-0.907-2.342h-6.08
			c-0.264,0.643-0.527,1.436-0.831,2.38c-0.377,1.282,0.038,1.548,1.058,1.735l0.906,0.113v1.209h-7.1v-1.209
			c1.736-0.227,2.492-0.49,3.513-2.945l5.892-13.783l1.812-0.34l6.118,14.652c0.755,1.926,1.51,2.266,3.247,2.416v1.209H334.975z
			 M332.557,87.781h-0.113l-2.379,6.345h4.834L332.557,87.781z"/>
		<path fill="#FFFFFF" d="M359.826,88.536c-0.415-1.662-0.717-2.417-1.17-2.908c-0.491-0.566-1.322-0.718-2.721-0.718h-1.511v12.085
			c0,2.719,0.265,2.87,2.946,3.059v1.209H347.4v-1.209c2.567-0.188,2.795-0.34,2.795-3.059V84.91h-1.021
			c-2.002,0-2.644,0.265-3.135,0.868c-0.453,0.529-0.793,1.359-1.133,2.72h-1.208c0.113-2.304,0.302-4.306,0.34-5.703h0.868
			c0.452,0.604,0.755,0.681,1.661,0.681h11.746c0.906,0,1.057-0.15,1.51-0.681h0.869c0.037,1.322,0.188,4.079,0.377,5.665
			L359.826,88.536z"/>
		<path fill="#FFFFFF" d="M363.268,101.263v-1.209c2.342-0.15,2.605-0.34,2.605-2.906v-9.519c0-2.604-0.266-2.757-2.605-2.944
			v-1.209h9.441v1.209c-2.38,0.15-2.605,0.301-2.605,2.944v9.479c0,2.604,0.227,2.795,2.605,2.945v1.209H363.268L363.268,101.263z"
			/>
		<path fill="#FFFFFF" d="M395.066,84.685c-1.965,0.265-2.455,0.642-3.588,2.832c-1.321,2.492-3.853,8.498-6.155,14.125h-1.437
			c-2.076-4.947-4.343-10.234-6.193-14.578c-0.868-1.965-1.549-2.19-3.172-2.379v-1.209h9.178v1.209l-0.944,0.15
			c-1.021,0.188-1.171,0.566-0.642,1.889c1.057,2.529,2.529,6.117,3.965,9.592c1.133-2.604,3.172-7.816,3.663-9.365
			s0.378-1.965-0.944-2.152l-0.755-0.113v-1.207h7.024V84.685L395.066,84.685z"/>
		<path fill="#FFFFFF" d="M413.311,96.392c-0.188,1.321-0.793,4.116-1.02,4.871H396.77v-1.209c2.568-0.188,2.796-0.377,2.796-3.059
			v-9.328c0-2.682-0.228-2.832-2.568-2.982v-1.209h14.578c0.037,0.756,0.149,2.645,0.302,4.457l-1.209,0.074
			c-0.377-1.133-0.642-1.699-1.057-2.229c-0.491-0.604-1.209-0.868-3.098-0.868h-1.624c-1.058,0-1.096,0.075-1.096,1.096v5.211
			h2.379c2.153,0,2.417-0.227,2.72-2.039h1.246v5.778h-1.246c-0.303-1.775-0.565-2.115-2.72-2.115h-2.379v4.041
			c0,1.586,0.189,2.305,0.644,2.568c0.489,0.34,1.32,0.415,2.831,0.415c1.662,0,2.605-0.228,3.285-0.981
			c0.529-0.529,1.021-1.396,1.55-2.605L413.311,96.392z"/>
		<path fill="#FFFFFF" d="M443.377,101.263v-1.209c2.945-0.302,3.097-0.566,3.097-4.229l-0.112-14.842h-0.151l-8.647,20.016h-0.981
			l-7.969-19.6h-0.113l-0.49,10.195c-0.15,3.135-0.15,4.834-0.038,6.156c0.113,1.736,0.906,2.039,3.438,2.266v1.246h-8.988v-1.246
			c2.152-0.188,2.87-0.793,3.097-2.189c0.228-1.246,0.491-3.098,0.793-7.062l0.566-7.591c0.34-4.53,0.076-4.909-3.247-5.212v-1.246
			h7.251l7.741,17.372l7.894-17.372h7.176v1.246c-3.135,0.303-3.323,0.491-3.247,3.928l0.377,13.937
			c0.076,3.663,0.227,3.928,3.322,4.229v1.209h-10.766V101.263z"/>
		<path fill="#FFFFFF" d="M472.272,96.392c-0.188,1.321-0.794,4.116-1.021,4.871h-15.521v-1.209
			c2.567-0.188,2.795-0.377,2.795-3.059v-9.328c0-2.682-0.228-2.832-2.568-2.982v-1.209h14.578c0.037,0.756,0.149,2.645,0.302,4.457
			l-1.209,0.074c-0.377-1.133-0.642-1.699-1.057-2.229c-0.491-0.604-1.209-0.868-3.098-0.868h-1.624
			c-1.058,0-1.096,0.075-1.096,1.096v5.211h2.379c2.153,0,2.417-0.227,2.721-2.039h1.245v5.778h-1.245
			c-0.304-1.775-0.566-2.115-2.721-2.115h-2.379v4.041c0,1.586,0.189,2.305,0.644,2.568c0.489,0.34,1.32,0.415,2.832,0.415
			c1.661,0,2.604-0.228,3.284-0.981c0.529-0.529,1.021-1.396,1.55-2.605L472.272,96.392z"/>
		<path fill="#FFFFFF" d="M483.869,83.476c3.323,0,6.192,0.643,8.195,2.455c1.396,1.245,2.379,3.36,2.379,5.815
			c0,6.571-5.324,9.517-11.896,9.517h-8.271v-1.209c2.379-0.15,2.719-0.377,2.719-2.906v-9.519c0-2.644-0.265-2.794-2.492-2.983
			v-1.17H483.869z M481.226,96.995c0,2.229,0.491,2.87,2.267,2.87c3.813,0,6.193-2.832,6.193-7.63c0-5.248-2.72-7.438-6.345-7.438
			c-0.981,0-1.586,0.228-1.812,0.453c-0.189,0.188-0.304,0.718-0.304,1.662V96.995L481.226,96.995z"/>
		<path fill="#FFFFFF" d="M496.79,101.263v-1.209c2.341-0.15,2.604-0.34,2.604-2.906v-9.519c0-2.604-0.265-2.757-2.604-2.944v-1.209
			h9.441v1.209c-2.381,0.15-2.606,0.301-2.606,2.944v9.479c0,2.604,0.227,2.795,2.606,2.945v1.209H496.79L496.79,101.263z"/>
		<path fill="#FFFFFF" d="M526.513,96.089c-0.34,1.359-1.02,3.891-1.511,4.796c-0.831,0.265-3.55,0.869-5.665,0.869
			c-7.288,0-10.574-4.457-10.574-9.14c0-5.74,4.722-9.631,11.218-9.631c2.529,0,4.606,0.604,5.476,0.793
			c0.151,1.549,0.265,2.945,0.529,4.834l-1.247,0.266c-0.981-3.398-2.832-4.494-5.249-4.494c-3.438,0-5.967,3.098-5.967,7.741
			c0,5.022,2.982,8.194,6.23,8.194c2.039,0,3.928-1.32,5.514-4.606L526.513,96.089z"/>
		<path fill="#FFFFFF" d="M528.783,101.263v-1.209c2.341-0.15,2.604-0.34,2.604-2.906v-9.519c0-2.604-0.265-2.757-2.604-2.944
			v-1.209h9.44v1.209c-2.38,0.15-2.605,0.301-2.605,2.944v9.479c0,2.604,0.227,2.795,2.605,2.945v1.209H528.783L528.783,101.263z"/>
		<path fill="#FFFFFF" d="M560.922,84.646c-1.624,0.113-2.455,0.453-2.568,1.588c-0.112,1.095-0.227,2.304-0.227,4.871v10.348
			h-1.888L544.871,87.97l-0.037,0.037v5.59c0,2.645,0.113,3.891,0.227,4.797c0.15,1.207,0.944,1.547,2.983,1.698v1.171h-7.553
			v-1.171c1.623-0.151,2.379-0.491,2.53-1.698c0.112-0.944,0.264-2.152,0.264-4.797v-5.099c0-3.097-0.68-3.663-3.21-3.853v-1.17
			h6.192l10.197,11.594h0.075v-3.967c0-2.566-0.113-3.775-0.228-4.758c-0.15-1.246-0.83-1.587-2.982-1.699v-1.17h7.591
			L560.922,84.646L560.922,84.646z"/>
		<path fill="#FFFFFF" d="M578.864,96.392c-0.188,1.321-0.793,4.116-1.021,4.871h-15.521v-1.209
			c2.567-0.188,2.795-0.377,2.795-3.059v-9.328c0-2.682-0.228-2.832-2.568-2.982v-1.209h14.578c0.037,0.756,0.15,2.645,0.302,4.457
			l-1.209,0.074c-0.377-1.133-0.642-1.699-1.057-2.229c-0.491-0.604-1.209-0.868-3.097-0.868h-1.624
			c-1.059,0-1.097,0.075-1.097,1.096v5.211h2.379c2.153,0,2.417-0.227,2.721-2.039h1.246v5.778h-1.246
			c-0.304-1.775-0.566-2.115-2.721-2.115h-2.379v4.041c0,1.586,0.189,2.305,0.644,2.568c0.49,0.34,1.32,0.415,2.832,0.415
			c1.662,0,2.604-0.228,3.285-0.981c0.528-0.529,1.021-1.396,1.549-2.605L578.864,96.392z"/>
	</g>
	<g>
		<path fill="#FFFFFF" d="M122.66,16.672c-0.367,1.259-1.023,3.252-1.469,4.144c-0.708,0.157-3.043,0.682-4.879,0.682
			c-6.793,0-9.705-4.538-9.705-8.682c0-5.456,4.17-9.154,10.309-9.154c2.125,0,4.013,0.551,4.721,0.708
			c0.21,1.443,0.394,2.623,0.577,4.171l-0.918,0.184c-0.787-2.99-2.649-3.987-4.958-3.987c-4.013,0-6.19,3.62-6.19,7.554
			c0,4.827,2.676,8.079,6.4,8.079c2.387,0,3.908-1.417,5.246-4.04L122.66,16.672z"/>
		<path fill="#FFFFFF" d="M137.874,14.757c0,4.407-3.305,6.688-6.82,6.688c-4.485,0-6.873-3.174-6.873-6.269
			c0-4.617,3.699-6.768,6.873-6.768C135.224,8.409,137.874,11.216,137.874,14.757z M127.486,14.626c0,3.489,1.6,5.875,3.803,5.875
			c1.757,0,3.279-1.39,3.279-5.193c0-3.017-1.312-5.954-3.725-5.954C129.113,9.354,127.486,11.19,127.486,14.626z"/>
		<path fill="#FFFFFF" d="M150.622,17.459c-0.158,0.918-0.551,2.964-0.708,3.646h-10.518v-0.839
			c1.784-0.131,1.941-0.262,1.941-2.072V11.61c0-1.81-0.184-1.915-1.81-2.046V8.75h6.689v0.813
			c-1.784,0.131-1.941,0.236-1.941,2.072v6.688c0,0.892,0.131,1.364,0.446,1.574c0.367,0.21,0.997,0.262,1.862,0.262
			c0.997-0.026,1.705-0.184,2.151-0.734c0.394-0.446,0.656-1.049,1.023-2.099L150.622,17.459z"/>
		<path fill="#FFFFFF" d="M165.285,9.564c-1.181,0.052-1.653,0.341-1.757,1.102c-0.079,0.603-0.158,1.469-0.158,3.174v1.442
			c0,2.046-0.367,3.699-1.469,4.774c-0.892,0.866-2.229,1.39-3.725,1.39c-1.364,0-2.623-0.289-3.594-0.997
			c-1.102-0.813-1.757-2.229-1.757-4.459v-4.354c0-1.81-0.157-1.915-1.784-2.072V8.75h6.505v0.813
			c-1.626,0.157-1.757,0.262-1.757,2.072v3.725c0,3.069,1.154,4.564,3.2,4.564c2.177,0,3.252-1.653,3.252-4.748v-1.312
			c0-1.862-0.079-2.597-0.157-3.2c-0.105-0.787-0.603-1.023-2.072-1.102V8.75h5.272L165.285,9.564L165.285,9.564z"/>
		<path fill="#FFFFFF" d="M183.095,9.59c-1.889,0.131-1.994,0.289-1.967,2.046l0.157,6.662c0.026,1.731,0.105,1.862,1.862,1.967
			v0.839h-6.531v-0.839c1.705-0.105,1.81-0.236,1.836-1.994l0.079-7.528h-0.079l-4.407,10.151h-0.761l-3.856-9.967h-0.079
			l-0.236,4.774c-0.105,1.994-0.131,2.702-0.079,3.331c0.052,0.892,0.472,1.154,1.81,1.233v0.839h-4.931v-0.839
			c1.128-0.052,1.547-0.367,1.705-1.259c0.131-0.655,0.236-1.574,0.367-3.2l0.314-3.803c0.184-2.125-0.026-2.282-1.705-2.414V8.75
			h4.669l3.41,7.764l3.672-7.764h4.748v0.84H183.095z"/>
		<path fill="#FFFFFF" d="M193.299,14.311c2.072,0.236,3.541,1.18,3.541,3.069c0,2.938-3.357,3.725-6.505,3.725h-5.613v-0.839
			c1.679-0.105,1.836-0.236,1.836-2.046v-6.531c0-1.889-0.157-1.994-1.731-2.125V8.75h6.819c2.781,0,4.433,0.839,4.433,2.833
			c0,1.705-1.6,2.413-2.78,2.675V14.311L193.299,14.311z M190.44,14.023c1.521,0,2.571-0.551,2.571-2.125
			c0-1.705-1.233-2.229-2.387-2.229c-1.049,0-1.18,0.314-1.18,1.128v3.226H190.44z M189.443,18.272c0,1.626,0.629,1.915,1.521,1.915
			c1.364,0,2.649-0.866,2.649-2.702s-1.312-2.518-3.2-2.518h-0.971L189.443,18.272L189.443,18.272z"/>
		<path fill="#FFFFFF" d="M198.807,21.105v-0.839c1.626-0.105,1.81-0.236,1.81-2.02v-6.61c0-1.81-0.184-1.915-1.81-2.046V8.75h6.558
			v0.84c-1.652,0.105-1.81,0.21-1.81,2.046v6.583c0,1.81,0.157,1.941,1.81,2.046v0.839L198.807,21.105L198.807,21.105z"/>
		<path fill="#FFFFFF" d="M214.205,21.105v-0.839l0.472-0.052c0.708-0.131,0.892-0.341,0.551-1.259l-0.629-1.626h-4.223
			c-0.184,0.446-0.367,0.997-0.577,1.653c-0.262,0.892,0.026,1.075,0.734,1.207l0.629,0.079v0.839h-4.931v-0.839
			c1.207-0.157,1.731-0.341,2.439-2.046l4.092-9.574l1.259-0.236l4.249,10.177c0.525,1.338,1.049,1.574,2.256,1.679v0.839h-6.321
			V21.105z M212.526,11.74h-0.079l-1.653,4.407h3.357L212.526,11.74z"/>
		<path fill="#FFFFFF" d="M245.077,4.921c-1.495,0.079-2.125,0.551-2.256,1.547c-0.104,0.761-0.184,1.784-0.184,3.856v2.597
			c0,2.885-0.446,5.115-1.941,6.688c-1.207,1.259-2.99,1.889-4.8,1.889c-1.653,0-3.252-0.367-4.485-1.312
			c-1.495-1.181-2.229-3.122-2.229-6.19V7.675c0-2.439-0.236-2.57-2.229-2.754V4.055h7.501v0.866
			c-1.967,0.157-2.203,0.314-2.203,2.754v5.797c0,4.04,1.495,6.374,4.485,6.374c3.357,0,4.669-2.649,4.669-7.03v-2.492
			c0-2.046-0.131-3.095-0.236-3.908c-0.157-0.944-0.734-1.391-2.544-1.495V4.055h6.453L245.077,4.921L245.077,4.921z"/>
		<path fill="#FFFFFF" d="M259.032,9.564c-1.128,0.079-1.705,0.314-1.784,1.102c-0.079,0.761-0.157,1.6-0.157,3.384v7.187h-1.312
			l-7.895-9.364l-0.026,0.026v3.882c0,1.836,0.079,2.702,0.157,3.331c0.105,0.839,0.656,1.076,2.072,1.181v0.813h-5.246v-0.813
			c1.128-0.105,1.652-0.341,1.757-1.181c0.079-0.656,0.184-1.495,0.184-3.331V12.24c0-2.151-0.472-2.544-2.229-2.675V8.75h4.302
			l7.082,8.053h0.053v-2.754c0-1.784-0.079-2.623-0.158-3.305c-0.105-0.866-0.577-1.102-2.072-1.18V8.75h5.272V9.564L259.032,9.564z
			"/>
		<path fill="#FFFFFF" d="M260.133,21.105v-0.839c1.626-0.105,1.81-0.236,1.81-2.02v-6.61c0-1.81-0.184-1.915-1.81-2.046V8.75h6.558
			v0.84c-1.652,0.105-1.81,0.21-1.81,2.046v6.583c0,1.81,0.157,1.941,1.81,2.046v0.839L260.133,21.105L260.133,21.105z"/>
		<path fill="#FFFFFF" d="M282.219,9.59c-1.363,0.184-1.705,0.446-2.491,1.967c-0.918,1.731-2.676,5.902-4.275,9.81h-0.997
			c-1.442-3.436-3.017-7.108-4.302-10.125c-0.604-1.364-1.075-1.521-2.203-1.653V8.75h6.374v0.84l-0.656,0.105
			c-0.708,0.131-0.813,0.394-0.445,1.312c0.734,1.757,1.757,4.25,2.754,6.663c0.787-1.81,2.203-5.43,2.544-6.505
			c0.341-1.076,0.263-1.364-0.655-1.495l-0.527-0.08V8.75h4.879V9.59z"/>
		<path fill="#FFFFFF" d="M294.888,17.721c-0.131,0.918-0.551,2.859-0.708,3.384H283.4v-0.839c1.783-0.131,1.941-0.262,1.941-2.125
			v-6.479c0-1.862-0.158-1.967-1.784-2.072V8.75h10.125c0.026,0.525,0.104,1.836,0.21,3.095l-0.84,0.053
			c-0.262-0.787-0.445-1.181-0.734-1.548c-0.341-0.419-0.839-0.603-2.15-0.603h-1.128c-0.734,0-0.761,0.052-0.761,0.761v3.62h1.652
			c1.495,0,1.679-0.158,1.889-1.417h0.865v4.013h-0.865c-0.21-1.233-0.394-1.469-1.889-1.469h-1.652v2.807
			c0,1.102,0.131,1.6,0.445,1.784c0.342,0.236,0.918,0.288,1.968,0.288c1.154,0,1.81-0.157,2.282-0.682
			c0.367-0.367,0.708-0.971,1.075-1.81L294.888,17.721z"/>
		<path fill="#FFFFFF" d="M309.63,21.262h-0.839c-2.676,0-3.489-0.629-4.224-1.705c-0.629-0.866-1.232-1.941-1.731-2.859
			c-0.367-0.656-0.603-0.865-1.416-0.865h-0.394v2.387c0,1.757,0.157,1.915,1.81,2.046v0.839h-6.505v-0.839
			c1.653-0.105,1.837-0.236,1.837-2.02v-6.663c0-1.784-0.158-1.889-1.758-2.02V8.75h6.636c1.495,0,2.492,0.158,3.306,0.63
			c0.865,0.498,1.416,1.39,1.416,2.544c0,1.653-1.206,2.676-2.623,3.174c0.341,0.63,1.207,1.967,1.836,2.859
			c0.656,0.944,1.023,1.442,1.469,1.889c0.42,0.393,0.866,0.603,1.286,0.734L309.63,21.262z M301.787,14.914
			c0.761,0,1.391-0.079,1.915-0.446c0.629-0.419,0.944-1.207,0.944-2.125c0-1.915-1.233-2.675-2.57-2.675
			c-0.84,0-1.05,0.236-1.05,0.944v4.302H301.787z"/>
		<path fill="#FFFFFF" d="M318.705,12.344c-0.498-1.652-1.441-2.99-3.017-2.99c-1.128,0-1.862,0.813-1.862,1.784
			c0,1.207,0.997,1.705,1.993,2.098l0.683,0.289c2.046,0.839,3.672,1.784,3.672,3.908c0.026,2.439-2.072,4.013-5.036,4.013
			c-1.836,0-3.147-0.682-3.646-0.97c-0.184-0.499-0.446-2.02-0.656-3.462l0.813-0.21c0.524,1.548,1.862,3.698,3.803,3.698
			c1.26,0,2.046-0.787,2.046-1.915c0.025-1.049-0.734-1.652-2.02-2.203l-0.812-0.341c-1.495-0.629-3.332-1.679-3.332-3.725
			c0-2.334,1.731-3.908,4.827-3.908c1.284,0,2.465,0.42,2.964,0.629c0.131,0.708,0.262,1.679,0.445,3.095L318.705,12.344z"/>
		<path fill="#FFFFFF" d="M321.645,21.105v-0.839c1.627-0.105,1.811-0.236,1.811-2.02v-6.61c0-1.81-0.184-1.915-1.811-2.046V8.75
			h6.558v0.84c-1.652,0.105-1.81,0.21-1.81,2.046v6.583c0,1.81,0.156,1.941,1.81,2.046v0.839L321.645,21.105L321.645,21.105z"/>
		<path fill="#FFFFFF" d="M341.055,12.265c-0.289-1.154-0.5-1.679-0.813-2.02c-0.341-0.393-0.918-0.498-1.89-0.498h-1.049v8.394
			c0,1.889,0.184,1.993,2.047,2.125v0.839h-6.926v-0.839c1.783-0.131,1.939-0.236,1.939-2.125V9.747h-0.707
			c-1.391,0-1.836,0.184-2.178,0.603c-0.313,0.367-0.551,0.944-0.787,1.889h-0.838c0.078-1.6,0.209-2.99,0.234-3.96h0.604
			c0.314,0.419,0.524,0.472,1.154,0.472h8.157c0.63,0,0.733-0.104,1.05-0.472h0.604c0.025,0.918,0.132,2.833,0.263,3.934
			L341.055,12.265z"/>
		<path fill="#FFFFFF" d="M356.293,9.59c-1.363,0.131-1.73,0.394-2.492,1.495c-0.551,0.839-1.232,1.967-2.229,3.83
			c-0.236,0.446-0.314,0.708-0.314,1.154v2.177c0,1.705,0.184,1.888,2.047,2.02v0.839H346.3v-0.839
			c1.89-0.157,2.021-0.289,2.021-1.994v-1.993c0-0.604-0.104-0.839-0.394-1.338c-0.683-1.233-1.364-2.361-2.282-3.856
			c-0.707-1.207-1.049-1.39-2.229-1.495V8.75h6.111v0.84l-0.734,0.131c-0.577,0.105-0.577,0.367-0.288,0.918
			c0.733,1.338,1.521,2.676,2.177,3.856c0.787-1.417,1.549-2.885,1.916-3.698c0.34-0.735,0.262-0.997-0.395-1.102l-0.708-0.105V8.75
			h4.8v0.84H356.293z"/>
	</g>
	<g>
		<path fill="#FFFFFF" d="M120.92,133.218c-0.499,1.26-1.495,3.254-2.125,4.223c-0.813,0.211-2.597,0.656-4.564,0.656
			c-4.538,0-7.869-2.623-7.869-7.502c0-6.348,5.062-10.334,11.174-10.334c2.282,0,3.856,0.551,4.538,0.786
			c-0.053,1.364-0.158,2.833-0.263,4.275l-0.865,0.079c-0.367-3.174-1.731-4.092-3.987-4.092c-4.013,0-7.187,4.223-7.187,9.181
			c0,3.935,1.784,6.558,4.722,6.558c2.229,0,3.83-1.548,5.613-4.197L120.92,133.218z"/>
		<path fill="#FFFFFF" d="M122.756,133.795c0-3.437,1.889-5.954,3.935-7.028c1.049-0.552,2.203-0.918,3.226-0.918
			c2.439,0,3.751,1.6,3.751,4.144c0,2.282-0.918,4.748-2.807,6.348c-1.128,0.972-2.754,1.679-4.328,1.679
			C123.622,138.019,122.756,135.841,122.756,133.795z M128.264,136.759c1.154-0.472,2.439-3.252,2.439-6.846
			c-0.026-2.046-0.761-2.964-1.757-2.964c-0.236,0-0.525,0.052-0.761,0.157c-0.813,0.367-2.466,2.569-2.466,6.768
			c0,1.993,0.813,3.016,1.81,3.016C127.845,136.89,128.028,136.838,128.264,136.759z"/>
		<path fill="#FFFFFF" d="M140.593,135.265c-1.6,1.758-3.489,2.754-4.38,2.754c-0.629,0-1.128-0.578-0.551-3.332
			c0.839-4.092,1.679-8.156,2.518-12.223c0.262-1.312,0.157-1.494-0.971-1.548l-0.734-0.053l0.157-0.734
			c2.361-0.21,4.066-0.944,4.459-0.944c0.315,0,0.341,0.264,0.21,0.918c-0.997,4.879-2.02,9.758-3.042,14.689
			c-0.157,0.734-0.079,0.996,0.079,0.996c0.236,0,1.154-0.551,1.836-1.206L140.593,135.265z"/>
		<path fill="#FFFFFF" d="M147.413,135.265c-1.6,1.758-3.489,2.754-4.38,2.754c-0.629,0-1.128-0.578-0.551-3.332
			c0.839-4.092,1.679-8.156,2.518-12.223c0.262-1.312,0.157-1.494-0.971-1.548l-0.734-0.053l0.157-0.734
			c2.361-0.21,4.066-0.944,4.459-0.944c0.315,0,0.341,0.264,0.21,0.918c-0.997,4.879-2.02,9.758-3.042,14.689
			c-0.157,0.734-0.079,0.996,0.079,0.996c0.236,0,1.154-0.551,1.836-1.206L147.413,135.265z"/>
		<path fill="#FFFFFF" d="M157.931,134.844c-2.334,2.466-4.328,3.175-5.954,3.175c-1.417,0-3.095-0.787-3.095-3.908
			c0-2.439,1.102-5.114,3.095-6.662c1.075-0.84,2.728-1.6,4.04-1.6c1.679,0,2.57,1.021,2.57,2.202c0,2.649-4.223,3.986-6.82,4.669
			c-0.026,0.314-0.026,0.551-0.026,0.762c0,1.362,0.472,2.647,1.915,2.647c1.049,0,2.518-0.76,3.777-1.967L157.931,134.844z
			 M154.023,127.29c-0.629,0.395-1.757,1.757-2.151,4.512c3.147-0.918,4.17-2.046,4.17-3.384c0-0.997-0.629-1.417-1.102-1.417
			C154.652,127.001,154.285,127.106,154.023,127.29z"/>
		<path fill="#FFFFFF" d="M171.702,126.503c-0.892,0.944-1.6,1.312-2.099,1.391c-0.157,0.025-0.289,0.053-0.524,0.078
			c0.131,0.367,0.184,0.787,0.184,1.285c0,1.731-0.971,3.018-1.889,3.777c-0.761,0.63-2.02,1.232-3.725,1.626
			c-0.21,0.157-0.367,0.366-0.394,0.604c0,0.34,0.577,0.733,1.836,1.391c2.702,1.312,3.75,2.359,3.75,3.566
			c0,2.281-3.855,4.014-6.636,4.014c-2.702,0-4.853-1.312-4.853-2.938c0.026-1.233,1.679-2.309,4.302-3.567
			c-0.577-0.366-0.971-0.892-0.944-1.312c0-0.524,0.524-1.049,1.862-1.784c-1.757-0.341-2.544-1.494-2.544-3.174
			c0-1.626,0.813-3.252,2.256-4.301c1.102-0.812,2.544-1.312,3.646-1.312c0.997,0,1.757,0.235,2.413,0.734
			c1.626-0.025,2.649-0.367,3.095-0.63L171.702,126.503z M166.325,141.271c0-0.629-0.524-1.181-1.679-1.861
			c-0.839-0.498-1.626-0.918-2.229-1.182c-1.232,0.656-2.203,1.627-2.203,2.57c0,1.26,1.574,2.229,3.226,2.229
			C165.223,143.028,166.325,142.215,166.325,141.271z M166.64,129.022c0-1.26-0.419-2.205-1.338-2.205
			c-0.734,0-1.364,0.709-1.757,1.496c-0.446,0.865-0.787,2.021-0.787,3.252c0,1.232,0.498,1.994,1.285,1.994
			C165.276,133.56,166.64,131.802,166.64,129.022z"/>
		<path fill="#FFFFFF" d="M180.043,134.844c-2.334,2.466-4.328,3.175-5.954,3.175c-1.417,0-3.095-0.787-3.095-3.908
			c0-2.439,1.102-5.114,3.095-6.662c1.075-0.84,2.728-1.6,4.04-1.6c1.679,0,2.57,1.021,2.57,2.202c0,2.649-4.223,3.986-6.82,4.669
			c-0.026,0.314-0.026,0.551-0.026,0.762c0,1.362,0.472,2.647,1.915,2.647c1.049,0,2.518-0.76,3.777-1.967L180.043,134.844z
			 M176.135,127.29c-0.629,0.395-1.757,1.757-2.151,4.512c3.147-0.918,4.17-2.046,4.17-3.384c0-0.997-0.629-1.417-1.102-1.417
			C176.765,127.001,176.397,127.106,176.135,127.29z"/>
		<path fill="#FFFFFF" d="M187.624,133.795c0-3.437,1.889-5.954,3.935-7.028c1.049-0.552,2.203-0.918,3.226-0.918
			c2.439,0,3.751,1.6,3.751,4.144c0,2.282-0.918,4.748-2.807,6.348c-1.128,0.972-2.754,1.679-4.328,1.679
			C188.489,138.019,187.624,135.841,187.624,133.795z M193.132,136.759c1.154-0.472,2.439-3.252,2.439-6.846
			c-0.026-2.046-0.761-2.964-1.757-2.964c-0.236,0-0.525,0.052-0.761,0.157c-0.813,0.367-2.466,2.569-2.466,6.768
			c0,1.993,0.813,3.016,1.81,3.016C192.712,136.89,192.896,136.838,193.132,136.759z"/>
		<path fill="#FFFFFF" d="M202.497,126.267c0.472-2.098,1.102-3.697,2.334-4.957c1.364-1.391,3.017-2.125,4.065-2.125
			c1.154,0,1.81,0.709,1.784,1.285c-0.026,0.577-0.524,1.129-0.865,1.338c-0.236,0.157-0.472,0.185-0.682-0.053
			c-0.656-0.76-1.233-1.206-1.757-1.206c-0.656-0.026-1.259,0.655-2.072,5.718h3.017l-0.577,0.971l-2.676,0.211
			c-0.446,2.57-0.76,4.643-1.442,7.605c-0.971,4.381-2.099,6.19-3.777,7.713c-1.127,1.021-2.151,1.469-2.911,1.469
			c-0.813,0-1.731-0.577-1.705-1.207c0-0.524,0.419-1.049,0.839-1.363c0.21-0.157,0.367-0.184,0.551-0.053
			c0.472,0.473,1.39,0.84,1.915,0.84c0.419,0,0.734-0.21,0.944-0.604c0.21-0.367,0.604-1.365,1.364-5.851
			c0.629-3.619,0.97-5.979,1.417-8.552h-2.125l-0.105-0.287l0.866-0.893H202.497L202.497,126.267z"/>
		<path fill="#FFFFFF" d="M221.907,120.681c3.436,0,5.928,1.207,5.928,4.484c0,3.541-2.99,5.509-6.374,5.744
			c-0.315,0.025-0.604,0.025-0.866,0l-1.862-0.498l-0.761,3.961c-0.419,2.15-0.21,2.309,2.125,2.518l-0.157,0.813h-7.606
			l0.184-0.813c1.941-0.184,2.125-0.367,2.57-2.518l2.02-10.335c0.42-2.149,0.263-2.36-1.731-2.544l0.184-0.812H221.907z
			 M218.969,129.467c0.341,0.132,0.892,0.314,1.626,0.314c2.151,0,4.092-1.993,4.092-4.854c0-2.149-1.154-3.278-2.938-3.278
			c-0.472,0-0.813,0.08-1.049,0.211c-0.262,0.156-0.42,0.498-0.577,1.338L218.969,129.467z"/>
		<path fill="#FFFFFF" d="M240.425,135.369c-1.679,1.757-3.331,2.647-4.275,2.647c-0.734,0-1.102-0.707-0.604-2.807l1.285-5.718
			c0.289-1.128,0.131-1.574-0.209-1.574c-0.971,0-3.332,2.31-4.617,4.407c-0.314,1.285-0.787,3.777-1.023,5.141
			c-0.866,0.105-1.81,0.315-2.649,0.551l-0.158-0.209c1.076-5.011,2.125-10.047,3.148-15.477c0.236-1.285,0.026-1.363-1.049-1.416
			l-0.604-0.025l0.158-0.787c2.465-0.211,4.013-0.918,4.433-0.918c0.315,0,0.367,0.209,0.21,0.918l-2.177,10.309h0.053
			c1.626-2.046,3.147-3.252,4.249-3.908c0.629-0.367,1.443-0.654,1.994-0.654c0.682,0,1.652,0.393,0.892,3.697l-1.154,5.141
			c-0.184,0.787-0.104,1.023,0.079,1.023c0.209,0,0.997-0.473,1.626-1.05L240.425,135.369z"/>
		<path fill="#FFFFFF" d="M247.403,135.396c1.285-1.94,3.095-4.694,3.069-6.558c0-0.63-0.21-1.022-0.341-1.364
			c-0.105-0.263-0.079-0.551,0.079-0.812c0.262-0.498,0.787-0.812,1.285-0.812c0.656,0,1.233,0.576,1.285,1.652
			c0,0.734-0.289,1.68-0.997,2.857c-1.181,2.021-2.964,4.67-4.433,6.742c-1.521,2.202-3.147,4.406-4.853,6.348l-3.2,0.787
			l-0.21-0.655c2.754-1.812,4.538-3.463,5.928-5.299c0.026-2.072-0.446-6.374-0.892-8.761c-0.184-1.051-0.367-1.338-0.551-1.338
			c-0.184,0-0.734,0.445-1.443,1.416l-0.524-0.683c1.023-1.626,2.465-3.067,3.541-3.067c0.866,0,1.364,0.943,1.652,3.356
			c0.262,2.099,0.42,3.96,0.551,6.188h0.054V135.396z"/>
		<path fill="#FFFFFF" d="M252.754,135.972c-0.026-0.523,0.394-1.074,0.839-1.338c0.394-0.234,0.629-0.209,0.813,0.053
			c0.866,1.129,1.967,1.836,2.833,1.836c0.812,0,1.39-0.523,1.39-1.18c0-0.576-0.341-1.076-1.626-2.046
			c-1.154-0.866-2.518-1.837-2.518-3.356c0-0.894,0.341-1.812,1.548-2.78c0.918-0.761,2.151-1.312,3.121-1.312
			c1.312,0,2.282,0.785,2.282,1.625c0,0.498-0.315,0.996-0.813,1.312c-0.315,0.21-0.525,0.156-0.682-0.079
			c-0.551-0.708-1.285-1.39-2.256-1.39c-0.682,0-1.154,0.445-1.154,1.127c0.026,0.787,0.813,1.47,1.81,2.15
			c1.521,1.049,2.413,1.941,2.413,3.254c0,2.229-2.885,4.17-5.088,4.17C254.275,138.019,252.78,137.101,252.754,135.972z"/>
		<path fill="#FFFFFF" d="M268.229,135.237c-1.495,1.68-3.488,2.781-4.328,2.781c-0.682,0-1.18-0.498-0.629-2.729l1.469-6.189
			c0.131-0.631,0.158-0.893-0.026-0.893c-0.21,0-0.971,0.445-1.653,0.997l-0.341-0.683c1.731-1.627,3.62-2.676,4.485-2.676
			c0.682,0,0.787,0.944,0.419,2.413l-1.6,6.479c-0.157,0.707-0.104,0.971,0.079,0.971c0.262,0,0.997-0.499,1.731-1.102
			L268.229,135.237z M268.702,122.123c0,0.97-0.761,1.836-1.784,1.836c-0.813,0-1.312-0.551-1.312-1.442
			c-0.026-0.762,0.604-1.811,1.757-1.811C268.256,120.706,268.702,121.362,268.702,122.123z"/>
		<path fill="#FFFFFF" d="M278.434,135.054c-1.731,1.941-3.777,2.965-5.403,2.965c-1.941,0-3.096-1.363-3.096-3.908
			c0-2.203,0.971-4.721,2.807-6.321c1.128-0.996,2.99-1.94,4.381-1.94c1.232,0,2.229,0.629,2.229,1.442
			c0.026,0.472-0.289,1.049-1.023,1.469c-0.262,0.185-0.524,0.157-0.708-0.131c-0.682-0.997-1.338-1.469-2.046-1.469
			c-0.655,0-1.181,0.524-1.626,1.416c-0.604,1.128-1.05,2.938-1.05,4.825c0,1.889,0.656,2.729,1.731,2.729
			c1.207,0,2.729-1.152,3.357-1.783L278.434,135.054z"/>
		<path fill="#FFFFFF" d="M285.935,135.237c-1.495,1.68-3.488,2.781-4.327,2.781c-0.683,0-1.181-0.498-0.63-2.729l1.469-6.189
			c0.131-0.631,0.157-0.893-0.026-0.893c-0.21,0-0.971,0.445-1.652,0.997l-0.341-0.683c1.731-1.627,3.62-2.676,4.485-2.676
			c0.682,0,0.787,0.944,0.42,2.413l-1.601,6.479c-0.157,0.707-0.104,0.971,0.079,0.971c0.262,0,0.996-0.499,1.731-1.102
			L285.935,135.237z M286.407,122.123c0,0.97-0.761,1.836-1.784,1.836c-0.812,0-1.311-0.551-1.311-1.442
			c-0.026-0.762,0.603-1.811,1.757-1.811C285.961,120.706,286.407,121.362,286.407,122.123z"/>
		<path fill="#FFFFFF" d="M299.496,135.054c-1.652,1.994-3.541,2.965-4.354,2.965c-0.577,0-1.102-0.367-0.655-2.598l0.367-1.783
			h-0.053c-0.944,1.338-1.993,2.36-2.859,3.096c-0.812,0.683-1.836,1.285-2.701,1.285c-0.892,0-1.731-1.05-1.731-3.121
			c0-2.545,1.207-5.272,2.99-6.847c1.259-1.075,3.384-2.202,5.377-2.202c0.524,0,1.075,0.051,1.652,0.184
			c0.525,0.104,0.944,0.184,1.338,0.184l0.131,0.104c-0.524,2.021-1.206,5.115-1.757,8.289c-0.157,0.84-0.105,1.076,0.053,1.076
			c0.235,0,1.153-0.656,1.81-1.312L299.496,135.054z M295.194,131.565c0.341-1.207,0.787-3.305,0.918-4.117
			c-0.341-0.184-1.023-0.367-1.6-0.367c-0.552,0-1.023,0.156-1.391,0.445c-1.705,1.232-2.623,4.434-2.623,6.793
			c0,1.103,0.236,1.574,0.604,1.574C292.047,135.894,294.591,132.824,295.194,131.565z"/>
		<path fill="#FFFFFF" d="M313.031,135.317c-1.836,1.914-3.384,2.701-4.224,2.701c-0.708,0-1.153-0.604-0.655-2.781
			c0.445-1.861,0.892-3.725,1.312-5.586c0.341-1.391,0.21-1.731-0.131-1.731c-0.971,0-3.594,2.912-4.644,4.774
			c-0.367,1.363-0.76,3.121-1.075,4.772c-0.892,0.104-1.915,0.315-2.597,0.552l-0.184-0.235c0.656-2.729,1.364-5.666,2.02-8.656
			c0.184-0.813,0.157-1.022-0.026-1.022c-0.235,0-1.102,0.524-1.679,1.103l-0.367-0.735c1.679-1.703,3.306-2.621,4.197-2.621
			c0.682,0,0.944,0.812,0.42,3.174l-0.394,1.651h0.052c1.443-1.968,3.043-3.331,4.171-4.092c0.734-0.474,1.442-0.733,2.02-0.733
			c0.813,0,1.601,0.444,0.813,3.934c-0.394,1.627-0.761,3.306-1.154,4.984c-0.157,0.654-0.131,0.943,0.079,0.943
			s0.97-0.499,1.626-1.128L313.031,135.317z"/>
		<path fill="#FFFFFF" d="M314.106,135.972c-0.026-0.523,0.394-1.074,0.84-1.338c0.393-0.234,0.629-0.209,0.812,0.053
			c0.866,1.129,1.969,1.836,2.833,1.836c0.813,0,1.392-0.523,1.392-1.18c0-0.576-0.342-1.076-1.627-2.046
			c-1.154-0.866-2.519-1.837-2.519-3.356c0-0.894,0.341-1.812,1.547-2.78c0.919-0.761,2.151-1.312,3.122-1.312
			c1.312,0,2.281,0.785,2.281,1.625c0,0.498-0.314,0.996-0.812,1.312c-0.313,0.21-0.523,0.156-0.683-0.079
			c-0.551-0.708-1.285-1.39-2.255-1.39c-0.684,0-1.154,0.445-1.154,1.127c0.026,0.787,0.812,1.47,1.811,2.15
			c1.521,1.049,2.412,1.941,2.412,3.254c0,2.229-2.885,4.17-5.088,4.17C315.628,138.019,314.133,137.101,314.106,135.972z"/>
		<path fill="#FFFFFF" d="M348.65,126.66c0.053,0.63,0.104,1.284,0.104,1.731c-0.026,2.989-1.103,3.227-1.521,3.227
			c-0.262,0-0.762-0.184-1.207-0.525c-0.342-0.209-0.996-0.708-1.469-1.021c-0.524,1.861-1.442,3.804-2.676,5.193
			c-1.363,1.547-3.279,2.754-5.797,2.754c-3.068,0-5.561-2.178-5.561-5.955c0-1.914,0.707-3.75,2.149-5.271
			c0.997-1.05,2.413-1.862,3.384-1.862c1.154,0,1.758,0.812,1.758,1.967c0,0.158,0,0.264-0.025,0.498l0.025,0.054
			c1.285-1.259,2.886-3.043,2.886-5.062c0-0.445-0.104-0.84-0.185-1.103c-0.156-0.498,0.474-1.259,1.207-1.259
			c0.734,0,1.207,0.604,1.207,1.6c0,1.652-1.285,3.488-3.175,5.325c-2.177,2.177-4.694,3.985-6.608,5.192
			c0.472,2.256,2.281,3.488,4.195,3.488c3.069,0,5.221-2.439,6.374-6.138c-0.812-0.577-1.469-0.972-2.177-0.972
			c-0.525,0-0.866,0.367-0.866,0.867c0,0.444,0.185,0.838,0.289,1.049c0.185,0.263,0.313,0.445,0.313,0.604
			c-0.025,0.395-0.733,0.708-1.127,0.708c-0.604,0-1.154-0.656-1.129-1.416c-0.025-0.997,0.813-1.94,1.602-2.519
			c0.76-0.655,1.68-0.998,2.15-0.998c1.207,0,2.91,1.285,3.75,1.89c0.289,0.21,0.578,0.394,0.762,0.394
			c0.262,0,0.445-0.551,0.472-2.438h0.894V126.66z M332.939,130.517c0,0.262,0.025,0.42,0.053,0.655
			c0.654-0.42,1.81-1.231,2.701-2.046c0.131-0.288,0.209-0.551,0.209-1.075c0-1.05-0.473-1.784-0.971-1.784
			C334.146,126.267,332.939,127.946,332.939,130.517z"/>
		<path fill="#FFFFFF" d="M356.441,132.3c0.263,1.836,1.416,4.801,4.197,4.801c1.889,0,2.963-1.363,2.963-3.068
			c0-1.338-0.787-2.389-2.203-3.489l-0.787-0.577c-1.469-1.18-3.043-2.648-3.043-4.8c0-2.964,2.361-4.903,5.562-4.903
			c0.996,0,1.939,0.184,2.807,0.497c0.473,0.157,0.865,0.341,1.103,0.421c-0.104,1.049-0.104,2.412-0.132,3.881l-0.865,0.078
			c-0.21-1.757-0.893-3.908-3.146-3.908c-1.758,0-2.676,1.47-2.676,2.834c0,1.391,0.84,2.256,2.229,3.279l0.787,0.575
			c1.81,1.312,3.227,2.729,3.227,4.983c0,3.227-2.807,5.193-6.111,5.193c-2.178,0-4.014-0.918-4.694-1.625
			c0-0.604,0-2.047-0.054-4.066L356.441,132.3z"/>
		<path fill="#FFFFFF" d="M380.602,135.185c-1.705,1.916-3.385,2.834-4.275,2.834c-0.762,0-1.049-0.787-0.604-2.729
			c0.131-0.656,0.262-1.232,0.394-1.862h-0.054c-1.547,2.072-3.095,3.357-4.039,3.962c-0.629,0.418-1.338,0.629-1.939,0.629
			c-0.761,0-1.705-0.498-0.971-3.646c0.394-1.73,0.812-3.463,1.232-5.246c0.184-0.761,0.184-1.075-0.027-1.075
			c-0.209,0-0.943,0.577-1.678,1.154l-0.314-0.735c1.626-1.572,3.384-2.621,4.302-2.621c0.708,0,0.892,0.603,0.446,2.543
			c-0.42,1.89-0.866,3.883-1.312,5.771c-0.289,1.232-0.158,1.679,0.235,1.679c1.285,0,3.751-3.174,4.459-4.485
			c0.367-1.521,0.733-3.174,1.076-4.799l2.518-0.709h0.314c-0.683,2.701-1.337,5.534-1.968,8.734
			c-0.156,0.865-0.131,1.102,0.054,1.102c0.235,0,1.102-0.551,1.757-1.207L380.602,135.185z"/>
		<path fill="#FFFFFF" d="M382.068,128.522c1.47-1.547,3.175-2.674,4.065-2.674c0.761,0,0.918,0.969,0.474,3.041l-0.236,1.207h0.104
			c1.26-2.412,2.676-4.248,3.805-4.248c0.472,0,0.943,0.262,1.205,0.682c0.289,0.42,0.236,0.943-0.077,1.441
			c-0.289,0.446-0.552,0.762-0.841,0.971c-0.234,0.185-0.444,0.185-0.629,0.026c-0.34-0.313-0.683-0.473-0.996-0.473
			c-0.289,0-0.604,0.157-1.154,0.918c-0.629,0.894-1.338,2.125-1.626,3.017c-0.341,1.521-0.734,3.516-0.997,5.062
			c-0.839,0.078-1.889,0.289-2.598,0.523l-0.184-0.234c0.656-2.756,1.285-5.641,1.811-8.446c0.158-0.866,0.132-1.207-0.053-1.207
			c-0.236,0-1.127,0.524-1.705,1.076L382.068,128.522z"/>
		<path fill="#FFFFFF" d="M404.05,126.503c-0.892,0.944-1.6,1.312-2.098,1.391c-0.157,0.025-0.289,0.053-0.525,0.078
			c0.132,0.367,0.185,0.787,0.185,1.285c0,1.731-0.971,3.018-1.889,3.777c-0.761,0.63-2.021,1.232-3.725,1.626
			c-0.21,0.157-0.367,0.366-0.395,0.604c0,0.34,0.577,0.733,1.837,1.391c2.7,1.312,3.751,2.359,3.751,3.566
			c0,2.281-3.856,4.014-6.637,4.014c-2.701,0-4.854-1.312-4.854-2.938c0.025-1.233,1.679-2.309,4.302-3.567
			c-0.577-0.366-0.971-0.892-0.944-1.312c0-0.524,0.525-1.049,1.862-1.784c-1.757-0.341-2.544-1.494-2.544-3.174
			c0-1.626,0.812-3.252,2.256-4.301c1.102-0.812,2.544-1.312,3.646-1.312c0.997,0,1.758,0.235,2.413,0.734
			c1.627-0.025,2.648-0.367,3.096-0.63L404.05,126.503z M398.673,141.271c0-0.629-0.523-1.181-1.679-1.861
			c-0.839-0.498-1.626-0.918-2.229-1.182c-1.232,0.656-2.203,1.627-2.203,2.57c0,1.26,1.574,2.229,3.227,2.229
			C397.571,143.028,398.673,142.215,398.673,141.271z M398.988,129.022c0-1.26-0.42-2.205-1.338-2.205
			c-0.734,0-1.364,0.709-1.758,1.496c-0.445,0.865-0.787,2.021-0.787,3.252c0,1.232,0.498,1.994,1.284,1.994
			C397.624,133.56,398.988,131.802,398.988,129.022z"/>
		<path fill="#FFFFFF" d="M412.392,134.844c-2.334,2.466-4.327,3.175-5.954,3.175c-1.415,0-3.095-0.787-3.095-3.908
			c0-2.439,1.103-5.114,3.095-6.662c1.075-0.84,2.729-1.6,4.039-1.6c1.68,0,2.57,1.021,2.57,2.202c0,2.649-4.223,3.986-6.819,4.669
			c-0.025,0.314-0.025,0.551-0.025,0.762c0,1.362,0.473,2.647,1.915,2.647c1.049,0,2.518-0.76,3.776-1.967L412.392,134.844z
			 M408.483,127.29c-0.631,0.395-1.759,1.757-2.151,4.512c3.148-0.918,4.171-2.046,4.171-3.384c0-0.997-0.63-1.417-1.102-1.417
			C409.113,127.001,408.746,127.106,408.483,127.29z"/>
		<path fill="#FFFFFF" d="M414.097,133.795c0-3.437,1.89-5.954,3.936-7.028c1.049-0.552,2.203-0.918,3.227-0.918
			c2.439,0,3.751,1.6,3.751,4.144c0,2.282-0.918,4.748-2.807,6.348c-1.128,0.972-2.755,1.679-4.328,1.679
			C414.962,138.019,414.097,135.841,414.097,133.795z M419.605,136.759c1.152-0.472,2.438-3.252,2.438-6.846
			c-0.025-2.046-0.76-2.964-1.757-2.964c-0.236,0-0.524,0.052-0.761,0.157c-0.813,0.367-2.467,2.569-2.467,6.768
			c0,1.993,0.813,3.016,1.812,3.016C419.186,136.89,419.369,136.838,419.605,136.759z"/>
		<path fill="#FFFFFF" d="M438.989,135.317c-1.836,1.914-3.384,2.701-4.225,2.701c-0.708,0-1.152-0.604-0.654-2.781
			c0.444-1.861,0.892-3.725,1.312-5.586c0.341-1.391,0.21-1.731-0.131-1.731c-0.971,0-3.594,2.912-4.644,4.774
			c-0.367,1.363-0.761,3.121-1.075,4.772c-0.893,0.104-1.915,0.315-2.598,0.552l-0.184-0.235c0.656-2.729,1.364-5.666,2.02-8.656
			c0.185-0.813,0.157-1.022-0.025-1.022c-0.235,0-1.103,0.524-1.679,1.103l-0.367-0.735c1.679-1.703,3.306-2.621,4.196-2.621
			c0.683,0,0.944,0.812,0.421,3.174l-0.395,1.651h0.052c1.443-1.968,3.043-3.331,4.171-4.092c0.734-0.474,1.442-0.733,2.021-0.733
			c0.812,0,1.601,0.444,0.812,3.934c-0.394,1.627-0.761,3.306-1.153,4.984c-0.157,0.654-0.131,0.943,0.079,0.943
			s0.97-0.499,1.626-1.128L438.989,135.317z"/>
		<path fill="#FFFFFF" d="M440.064,135.972c-0.026-0.523,0.394-1.074,0.84-1.338c0.393-0.234,0.629-0.209,0.812,0.053
			c0.866,1.129,1.968,1.836,2.833,1.836c0.813,0,1.392-0.523,1.392-1.18c0-0.576-0.343-1.076-1.628-2.046
			c-1.153-0.866-2.518-1.837-2.518-3.356c0-0.894,0.341-1.812,1.547-2.78c0.919-0.761,2.151-1.312,3.122-1.312
			c1.312,0,2.281,0.785,2.281,1.625c0,0.498-0.314,0.996-0.812,1.312c-0.313,0.21-0.523,0.156-0.683-0.079
			c-0.551-0.708-1.285-1.39-2.255-1.39c-0.684,0-1.154,0.445-1.154,1.127c0.026,0.787,0.812,1.47,1.811,2.15
			c1.521,1.049,2.413,1.941,2.413,3.254c0,2.229-2.886,4.17-5.09,4.17C441.586,138.019,440.091,137.101,440.064,135.972z"/>
	</g>
	<g>
		<rect x="10.074" y="56.617" fill="#FFFFFF" width="57.594" height="4.739"/>
		<path fill="#FFFFFF" d="M74.82,18.35c-6.154-6.038-16.988-2.254-29.256,1.664c-0.69,0.219-1.403,0.021-2.03-0.476
			c-0.532-0.448-1.1-0.829-1.657-1.157c1.729-1.025,2.893-2.91,2.893-5.068c0-2.945-2.164-5.381-4.981-5.82l2.164-2.798
			c0.215-0.275,0.215-0.732,0-1.009L39.26,0.212C39.153,0.07,39.013,0,38.869,0c-0.142,0-0.282,0.07-0.388,0.211l-2.689,3.474
			c-0.217,0.277-0.217,0.733,0,1.009l2.163,2.798c-2.82,0.439-4.985,2.875-4.985,5.82c0,2.158,1.163,4.043,2.894,5.068
			c-0.557,0.328-1.125,0.709-1.661,1.157c-0.624,0.497-1.334,0.694-2.025,0.476c-12.27-3.917-23.104-7.701-29.257-1.663
			c-7.371,7.229,1.206,18.925,3.908,23.739c1.895,3.375,3.235,7.304,3.235,10.429h28.804h28.809c0-3.125,1.339-7.054,3.232-10.429
			C73.612,37.275,82.194,25.579,74.82,18.35z M30.093,48.526c-2.229,0.152-4.067-1.912-4.771-4.729l1.826-4.283
			c0.203-0.469,0.063-0.905-0.243-1.213l-5.788-5.791c-0.325-0.324-0.63-0.339-0.786,0l-2.741,5.783
			c-0.21,0.498,0.018,0.883,0.316,1.211l4.318,4.369c0.905,3.436-1.424,4.678-2.74,4.678c-4.582,0-8.253-6.233-12-12.689
			C3.799,29.512,2.505,24.87,5.28,21.366c4.637-5.852,16.806-1.225,26.265,3.086c-0.092,1.354,0.23,2.924,1.067,4.795
			C37.604,40.371,34.235,48.247,30.093,48.526z M70.256,35.862c-3.748,6.456-7.415,12.689-12,12.689
			c-1.313,0-3.645-1.242-2.741-4.678l4.32-4.369c0.296-0.328,0.524-0.713,0.314-1.211l-2.74-5.783c-0.156-0.339-0.458-0.324-0.783,0
			l-5.791,5.791c-0.307,0.308-0.445,0.744-0.245,1.213l1.831,4.283c-0.709,2.816-2.549,4.881-4.774,4.729
			c-4.143-0.278-7.511-8.154-2.519-19.279c0.836-1.871,1.153-3.441,1.065-4.795c9.461-4.311,21.628-8.938,26.265-3.086
			C75.235,24.869,73.94,29.512,70.256,35.862z"/>
	</g>
</g>
</svg>
